<?xml version="1.0" encoding="utf-8"?>
<!-- Generator: Adobe Illustrator 25.2.3, SVG Export Plug-In . SVG Version: 6.00 Build 0)  -->
<svg version="1.1" id="Слой_1" xmlns="http://www.w3.org/2000/svg" xmlns:xlink="http://www.w3.org/1999/xlink" x="0px" y="0px"
	 viewBox="0 0 1150 1150" style="enable-background:new 0 0 1150 1150;" xml:space="preserve">
<style type="text/css">
	.st0{opacity:0.07;fill:url(#SVGID_1_);enable-background:new    ;}
	.st1{opacity:0.07;fill:url(#SVGID_2_);enable-background:new    ;}
	.st2{opacity:0.4;fill:url(#SVGID_3_);enable-background:new    ;}
	.st3{opacity:0.4;fill:url(#SVGID_4_);enable-background:new    ;}
	.st4{opacity:0.15;fill:url(#SVGID_5_);enable-background:new    ;}
	.st5{fill:#711900;}
	.st6{opacity:0.15;fill:#FFFFFF;enable-background:new    ;}
	.st7{opacity:0.2;fill:url(#SVGID_6_);enable-background:new    ;}
	.st8{opacity:0.2;fill:#FFFFFF;enable-background:new    ;}
	.st9{opacity:0.15;fill:url(#SVGID_7_);enable-background:new    ;}
	.st10{fill:#BF4930;}
	.st11{opacity:0.2;fill:url(#SVGID_8_);enable-background:new    ;}
	.st12{opacity:0.3;fill:url(#SVGID_9_);enable-background:new    ;}
	.st13{opacity:0.2;fill:url(#SVGID_10_);enable-background:new    ;}
</style>
<g>
	
		<linearGradient id="SVGID_1_" gradientUnits="userSpaceOnUse" x1="1002.7202" y1="953.7405" x2="756.0897" y2="526.2927" gradientTransform="matrix(1 0 0 -1 0 1152)">
		<stop  offset="0" style="stop-color:#FFFFFF"/>
		<stop  offset="1" style="stop-color:#FFFFFF;stop-opacity:0"/>
	</linearGradient>
	<path class="st0" d="M939.82,577.61c-12.74-7.35-21.94-7.57-27.61-0.63c-5.67,6.93-8.5,18.64-8.5,35.11l-0.02,88.87
		c0,16.87-1.56,30.88-4.68,42.03c-3.12,11.54-8.36,19.7-15.72,24.47c-7.08,4.94-16.71,6.25-28.88,3.93
		c-11.89-2.16-26.76-8.38-44.6-18.68l-8.49-4.9l0.02-70.03l10.62,6.13c12.74,7.35,21.24,8.33,25.49,2.94
		c4.53-5.23,6.8-16.09,6.8-32.56l0.02-78.27c0.01-20.4,1.99-36.52,5.96-48.36s11.9-19.42,23.79-22.76
		c-11.89-17.07-19.82-33.8-23.78-50.21c-3.96-16.41-5.94-34.82-5.93-55.22l0.02-78.27c0-16.48-2.26-29.95-6.79-40.41
		c-4.24-10.3-12.74-19.12-25.48-26.48l-10.62-6.13l0.02-70.03l8.49,4.9c17.84,10.3,32.7,21.23,44.59,32.8
		c12.17,11.74,21.8,24.16,28.88,37.27c7.36,13.27,12.6,27.48,15.71,42.62c3.11,14.74,4.66,30.55,4.66,47.42l-0.02,88.86
		c0,16.48,2.83,31.45,8.48,44.92c5.66,13.47,14.86,23.88,27.6,31.23L939.82,577.61z"/>
	
		<linearGradient id="SVGID_2_" gradientUnits="userSpaceOnUse" x1="884.1326" y1="1024.0122" x2="637.5023" y2="596.5644" gradientTransform="matrix(1 0 0 -1 0 1152)">
		<stop  offset="0" style="stop-color:#FFFFFF"/>
		<stop  offset="1" style="stop-color:#FFFFFF;stop-opacity:0"/>
	</linearGradient>
	<path class="st1" d="M617.32,320.17c12.74,7.35,21.94,7.56,27.61,0.63c5.67-6.93,8.5-18.64,8.5-35.12l0.02-88.86
		c0-16.87,1.56-30.88,4.68-42.03c3.12-11.54,8.22-19.78,15.3-24.72c7.36-4.77,16.99-6.08,28.89-3.93
		c12.18,2.32,27.18,8.63,45.02,18.92l8.49,4.9L755.82,220l-10.62-6.13c-12.74-7.35-21.38-8.42-25.91-3.18
		c-4.25,5.4-6.38,16.33-6.38,32.81l-0.02,78.27c-0.01,20.4-1.99,36.52-5.96,48.36c-3.97,11.84-11.9,19.42-23.79,22.76
		c11.89,17.07,19.82,33.8,23.78,50.21c3.96,16.41,5.94,34.82,5.93,55.22l-0.02,78.27c0,16.48,2.12,29.87,6.36,40.16
		c4.53,10.46,13.16,19.37,25.9,26.72l10.62,6.13l-0.02,70.03l-8.49-4.9c-17.84-10.3-32.84-21.31-45.02-33.05
		c-11.89-11.57-21.52-23.99-28.88-37.27c-7.08-13.11-12.17-27.23-15.28-42.37c-3.11-14.74-4.66-30.55-4.66-47.42l0.02-88.86
		c0-16.48-2.83-31.45-8.48-44.92c-5.66-13.47-14.86-23.88-27.6-31.23L617.32,320.17z"/>
	
		<linearGradient id="SVGID_3_" gradientUnits="userSpaceOnUse" x1="962.7201" y1="923.7405" x2="716.0897" y2="496.2927" gradientTransform="matrix(1 0 0 -1 0 1152)">
		<stop  offset="0" style="stop-color:#FFFFFF"/>
		<stop  offset="1" style="stop-color:#FFFFFF;stop-opacity:0"/>
	</linearGradient>
	<path class="st2" d="M899.82,607.61c-12.74-7.35-21.94-7.57-27.61-0.63c-5.66,6.93-8.5,18.64-8.5,35.12l-0.02,88.86
		c0,16.87-1.56,30.88-4.68,42.03c-3.12,11.54-8.36,19.7-15.72,24.47c-7.08,4.94-16.71,6.25-28.88,3.93
		c-11.89-2.16-26.76-8.38-44.6-18.68l-8.49-4.9l0.02-70.03l10.62,6.13c12.74,7.35,21.24,8.33,25.49,2.94
		c4.53-5.23,6.8-16.09,6.8-32.56l0.02-78.27c0.01-20.4,1.99-36.52,5.96-48.36s11.9-19.42,23.79-22.76
		c-11.89-17.07-19.82-33.8-23.78-50.21c-3.96-16.41-5.94-34.82-5.93-55.22l0.02-78.27c0-16.48-2.26-29.95-6.79-40.41
		c-4.24-10.3-12.74-19.12-25.48-26.48l-10.62-6.13l0.02-70.03l8.49,4.9c17.84,10.3,32.7,21.23,44.59,32.8
		c12.17,11.74,21.8,24.16,28.88,37.27c7.36,13.27,12.6,27.48,15.71,42.62c3.11,14.74,4.66,30.55,4.66,47.42l-0.02,88.86
		c0,16.48,2.83,31.45,8.48,44.92c5.66,13.47,14.86,23.88,27.6,31.23L899.82,607.61z"/>
	
		<linearGradient id="SVGID_4_" gradientUnits="userSpaceOnUse" x1="844.1323" y1="994.0124" x2="597.502" y2="566.5646" gradientTransform="matrix(1 0 0 -1 0 1152)">
		<stop  offset="0" style="stop-color:#FFFFFF"/>
		<stop  offset="1" style="stop-color:#FFFFFF;stop-opacity:0"/>
	</linearGradient>
	<path class="st3" d="M577.32,350.17c12.74,7.35,21.94,7.56,27.61,0.63c5.67-6.93,8.5-18.64,8.5-35.12l0.02-88.86
		c0-16.87,1.56-30.88,4.68-42.03c3.12-11.54,8.22-19.78,15.3-24.72c7.36-4.77,16.99-6.08,28.89-3.93
		c12.18,2.32,27.18,8.63,45.02,18.92l8.49,4.9L715.82,250l-10.62-6.13c-12.74-7.36-21.38-8.42-25.91-3.18
		c-4.25,5.4-6.38,16.33-6.38,32.81l-0.02,78.27c0,20.4-1.99,36.52-5.96,48.36c-3.97,11.84-11.9,19.42-23.79,22.76
		c11.89,17.07,19.81,33.8,23.78,50.21c3.96,16.41,5.94,34.82,5.93,55.22l-0.02,78.27c0,16.48,2.12,29.87,6.36,40.16
		c4.53,10.46,13.16,19.37,25.9,26.72l10.62,6.13l-0.02,70.03l-8.49-4.9c-17.84-10.3-32.84-21.31-45.02-33.05
		c-11.89-11.57-21.52-23.99-28.88-37.27c-7.08-13.11-12.17-27.23-15.28-42.37c-3.11-14.74-4.66-30.55-4.66-47.42l0.02-88.86
		c0-16.48-2.83-31.45-8.48-44.92c-5.66-13.47-14.86-23.88-27.6-31.23L577.32,350.17z"/>
	
		<linearGradient id="SVGID_5_" gradientUnits="userSpaceOnUse" x1="529.3071" y1="914.2057" x2="366.0388" y2="631.3425" gradientTransform="matrix(1 0 0 -1 0 1152)">
		<stop  offset="0" style="stop-color:#FFFFFF"/>
		<stop  offset="1" style="stop-color:#FFFFFF;stop-opacity:0"/>
	</linearGradient>
	<path class="st4" d="M355.28,137.34L526.19,236l-0.11,409.34l-170.92-98.65L355.28,137.34z"/>
	<path class="st5" d="M323.2,200.21l135.94,78.46l-0.01,37.65l-135.94-78.46L323.2,200.21z"/>
	<path class="st6" d="M376.4,363.83l130.62,75.4l-0.01,58.56l-130.62-75.4L376.4,363.83z"/>
	<path class="st6" d="M376.28,292.96l130.84,75.52l0,13.64L376.28,306.6L376.28,292.96z"/>
	<path class="st6" d="M376.28,319.52l113.09,65.27l0,13.64l-113.09-65.27L376.28,319.52z"/>
	
		<linearGradient id="SVGID_6_" gradientUnits="userSpaceOnUse" x1="413.9428" y1="1013.8233" x2="465.9558" y2="866.3459" gradientTransform="matrix(1 0 0 -1 0 1152)">
		<stop  offset="0" style="stop-color:#FFFFFF"/>
		<stop  offset="1" style="stop-color:#FFFFFF;stop-opacity:0"/>
	</linearGradient>
	<path class="st7" d="M355.27,137.35l170.92,98.65l-0.01,54.87l-170.92-98.65L355.27,137.35z"/>
	<path class="st8" d="M398,189.78c0,8.29-4.86,12.21-10.85,8.76c-5.99-3.46-10.85-12.99-10.85-21.28c0-8.29,4.86-12.22,10.85-8.76
		C393.15,171.96,398.01,181.48,398,189.78z"/>
	
		<linearGradient id="SVGID_7_" gradientUnits="userSpaceOnUse" x1="739.2995" y1="534.6807" x2="576.0315" y2="251.8176" gradientTransform="matrix(1 0 0 -1 0 1152)">
		<stop  offset="0" style="stop-color:#FFFFFF"/>
		<stop  offset="1" style="stop-color:#FFFFFF;stop-opacity:0"/>
	</linearGradient>
	<path class="st9" d="M565.27,516.87l170.92,98.65l-0.11,409.34l-170.92-98.65L565.27,516.87z"/>
	<path class="st10" d="M630.36,635.93l135.94,78.46l-0.01,37.65l-135.94-78.46L630.36,635.93z"/>
	<path class="st6" d="M586.4,674.85l130.73,75.46l-0.01,58.55L586.39,733.4L586.4,674.85z"/>
	<path class="st6" d="M586.25,758.49l130.84,75.52l0,13.64l-130.84-75.52L586.25,758.49z"/>
	<path class="st6" d="M586.25,783.06l113.09,65.27l0,13.64L586.25,796.7L586.25,783.06z"/>
	
		<linearGradient id="SVGID_8_" gradientUnits="userSpaceOnUse" x1="623.9352" y1="634.298" x2="675.9482" y2="486.8211" gradientTransform="matrix(1 0 0 -1 0 1152)">
		<stop  offset="0" style="stop-color:#FFFFFF"/>
		<stop  offset="1" style="stop-color:#FFFFFF;stop-opacity:0"/>
	</linearGradient>
	<path class="st11" d="M565.26,516.88l170.92,98.65l-0.01,54.87l-170.92-98.65L565.26,516.88z"/>
	<path class="st8" d="M608,569.3c0,8.29-4.86,12.22-10.85,8.76c-5.99-3.46-10.85-12.98-10.84-21.28c0-8.29,4.86-12.22,10.85-8.76
		C603.14,551.48,608,561.01,608,569.3z"/>
	
		<linearGradient id="SVGID_9_" gradientUnits="userSpaceOnUse" x1="470.8385" y1="640.5269" x2="317.1875" y2="520.223" gradientTransform="matrix(1 0 0 -1 0 1152)">
		<stop  offset="0" style="stop-color:#FFFFFF"/>
		<stop  offset="1" style="stop-color:#FFFFFF;stop-opacity:0"/>
	</linearGradient>
	<path class="st12" d="M535.73,573.59L238.16,401.83l0.08,155.08l271.31,156.6l26.27,38.91L535.73,573.59z"/>
	<path class="st6" d="M459.24,567.18l-65.2-37.64l0.01,13.64l65.2,37.64L459.24,567.18z"/>
	<path class="st6" d="M459.25,594.45l-161.49-93.21l0.01,13.64l161.49,93.21L459.25,594.45z"/>
	<path class="st6" d="M459.27,621.72L264.44,509.26l0.01,13.64l194.83,112.45L459.27,621.72z"/>
	<path class="st10" d="M475.29,590.65c0.01,12.78,7.58,27.51,16.91,32.89c9.33,5.39,16.89-0.61,16.88-13.39
		c-0.01-12.78-7.58-27.51-16.91-32.89C482.84,571.88,475.28,577.87,475.29,590.65z"/>
	<path class="st6" d="M267.62,292.92l-39.44-22.77l0-13.32l39.44,22.77c3.22,1.86,7.89,5.65,11.9,11.42c4.3,6.18,7.4,14,7.4,22.54
		c0,9.37-2.41,14.74-6.94,16.26c-4.27,1.43-9.29-1.01-12.38-2.79l-16.22-9.36l-0.09-0.05c-1.38-0.84-3.61-1.63-5.35-1.13
		c-1.45,0.42-3.08,1.85-3.08,7.07c0,5.21,1.62,8.38,2.99,10.31c1.68,2.37,3.88,4.07,5.27,4.77l0.17,0.09l49.62,28.64l0,13.32
		l-49.3-28.46c-3.39-1.77-8.28-5.5-12.5-11.45c-4.62-6.5-7.78-14.74-7.78-23.89c0-9.14,3.16-13.76,7.7-15.06
		c4.21-1.21,9.11,0.55,12.51,2.61l16.06,9.27c2.33,1.35,4.08,1.92,5.23,1.53c0.88-0.3,2.54-1.55,2.55-8.33
		c0-4.38-1.41-7.24-2.75-9.17C271.02,295.4,268.91,293.67,267.62,292.92z"/>
	<path class="st5" d="M239.88,271.57c0,11.37-6.66,16.75-14.86,12.01c-8.21-4.74-14.86-17.79-14.85-29.16
		c0-11.37,6.66-16.75,14.86-12.01C233.24,247.14,239.89,260.2,239.88,271.57z"/>
	<path class="st5" d="M318.88,381.57c0,11.37-6.66,16.75-14.86,12.01c-8.21-4.74-14.86-17.8-14.85-29.17
		c0-11.37,6.66-16.75,14.86-12.01C312.23,357.14,318.88,370.2,318.88,381.57z"/>
	
		<linearGradient id="SVGID_10_" gradientUnits="userSpaceOnUse" x1="446.0655" y1="383.7965" x2="393.6935" y2="342.4915" gradientTransform="matrix(1 0 0 -1 0 1152)">
		<stop  offset="0" style="stop-color:#FFFFFF"/>
		<stop  offset="1" style="stop-color:#FFFFFF;stop-opacity:0"/>
	</linearGradient>
	<path class="st13" d="M425.19,729.22c5.98,3.45,10.83,11.85,10.82,18.75L436,778.43l20.17,11.64c5.98,3.45,10.83,11.85,10.83,18.75
		c0,6.9-4.85,9.7-10.83,6.25L436,803.43l-0.01,30.46c0,6.9-4.85,9.7-10.83,6.25c-5.98-3.45-10.83-11.85-10.82-18.75l0.01-30.45
		l-20.17-11.64c-5.98-3.45-10.83-11.85-10.83-18.75c0-6.91,4.85-9.7,10.83-6.25l20.17,11.64l0.01-30.46
		C414.36,728.57,419.21,725.77,425.19,729.22z"/>
</g>
</svg>
